<?xml version="1.0" encoding="utf-8"?>
<!-- Generator: Adobe Illustrator 16.0.0, SVG Export Plug-In . SVG Version: 6.00 Build 0)  -->
<!DOCTYPE svg PUBLIC "-//W3C//DTD SVG 1.1//EN" "http://www.w3.org/Graphics/SVG/1.1/DTD/svg11.dtd">
<svg version="1.1" id="Layer_1" xmlns="http://www.w3.org/2000/svg" xmlns:xlink="http://www.w3.org/1999/xlink" x="0px" y="0px"
	 width="283.464px" height="283.464px" viewBox="0 0 283.464 283.464" enable-background="new 0 0 283.464 283.464"
	 xml:space="preserve">
<path fill="none" stroke="#193964" stroke-miterlimit="10" d="M133.405,4.325H38h-0.024v0.019v274.79
	c0.002,0.006,0.012,0.006,0.022,0.004c0.006,0,0.012,0,0.016,0h71.015v-0.04v-84.644h15.141c0.008,0,0.014-0.002,0.021-0.002
	c1.016-0.012,2.031-0.025,3.049-0.04c15.082-0.146,30.225-1.661,44.91-5.332c14.65-3.663,28.873-9.703,41.045-18.818
	c0.004-0.005,0.01-0.009,0.016-0.015c5.51-4.143,10.504-8.998,14.727-14.458c4.229-5.454,7.682-11.501,10.305-17.876
	c5.271-12.78,7.205-26.674,7.246-40.377c0-0.008,0-0.015,0-0.022c-0.01-8.719-0.992-17.479-3.275-25.925
	c-2.271-8.442-5.873-16.545-10.717-23.838c-0.004-0.006-0.008-0.012-0.012-0.018c0,0-0.611-0.882-1.834-2.65
	c-1.287-1.726-3.201-4.33-6.102-7.508c-2.9-3.168-6.775-6.935-11.934-10.809c-5.154-3.866-11.613-7.809-19.465-11.282
	c-9.207-4.05-17.732-6.394-25.096-7.916c-7.373-1.529-13.617-2.223-18.609-2.638c-4.998-0.422-8.758-0.502-11.262-0.567
	c-2.506-0.026-3.758-0.038-3.758-0.038H133.405z"/>
</svg>
